<svg width="40" height="40" viewBox="0 0 40 40" fill="none" xmlns="http://www.w3.org/2000/svg">
    <path d="M0 8C0 3.58172 3.58172 0 8 0H32C36.4183 0 40 3.58172 40 8V32C40 36.4183 36.4183 40 32 40H8C3.58172 40 0 36.4183 0 32V8Z" fill="#4E4B4B" />
    <path d="M13.1429 28.2857C13.1429 29.5429 14.1714 30.5714 15.4286 30.5714H24.5714C25.8286 30.5714 26.8571 29.5429 26.8571 28.2857V14.5714H13.1429V28.2857ZM28 11.1429H24L22.8571 10H17.1429L16 11.1429H12V13.4286H28V11.1429Z" fill="#FFFDFD" />
</svg>
    